<svg width="48" height="48" fill="none" xmlns="http://www.w3.org/2000/svg"><path d="M46.504 15.906c-.96-2.444-2.72-5.97-5.653-8.89-2.923-2.91-6.41-4.62-8.822-5.542A7.222 7.222 0 0024.366 3.1l-7.056 7.025c-2.092 2.082-2.695 5.287-1.5 7.973.37.833.773 1.648 1.203 2.436L1.526 36.023A1.798 1.798 0 001 37.294v7.909C1 46.195 1.804 47 2.797 47h7.906c.992 0 1.797-.805 1.797-1.797v-3.236h3.234c.993 0 1.797-.804 1.797-1.797v-3.235h3.235a1.797 1.797 0 000-3.595h-5.032c-.992 0-1.797.805-1.797 1.798v3.235h-3.234c-.992 0-1.797.805-1.797 1.797v3.235H4.594V38.04L20.528 22.1a1.798 1.798 0 00.266-2.204 29.084 29.084 0 01-1.7-3.26 3.578 3.578 0 01.751-3.965l7.056-7.025a3.624 3.624 0 013.845-.815c2.087.798 5.094 2.266 7.57 4.732 2.492 2.48 4.009 5.533 4.843 7.656a3.57 3.57 0 01-.806 3.836l-7.141 7.11a3.618 3.618 0 01-3.955.771 23.327 23.327 0 01-3.234-1.65 1.797 1.797 0 10-1.88 3.063 26.927 26.927 0 003.734 1.906 7.2 7.2 0 007.87-1.542l7.141-7.11a7.163 7.163 0 001.616-7.698z" fill="url(#paint0_linear)"/><defs><linearGradient id="paint0_linear" x1="47" y1="24" x2="-1.875" y2="24" gradientUnits="userSpaceOnUse"><stop stop-color="#F3E485"/><stop offset="1" stop-color="#B18145"/></linearGradient></defs></svg>