<svg width="48" height="48" fill="none" xmlns="http://www.w3.org/2000/svg"><path d="M47 23.91V24a22.925 22.925 0 01-3.612 12.289 1.796 1.796 0 11-3.027-1.937 19.338 19.338 0 003.045-10.397c-.024-10.68-8.68-19.361-19.316-19.361-6.796 0-13.101 3.605-16.593 9.337-.951 1.562-.466.707-1.681 2.553-1.222 1.53-3.6.9-3.15-1.396 1.034-1.935.825-1.538 1.928-3.297a23.059 23.059 0 016.994-7.1A22.915 22.915 0 0124.09 1c6.14 0 11.901 2.394 16.222 6.74 4.292 4.317 6.665 10.057 6.688 16.17zM35.19 39.83a19.285 19.285 0 01-11.1 3.486l-.045.002-.045-.002c-.273 0-.55-.006-.824-.017a1.797 1.797 0 10-.149 3.59c.323.014.65.021.973.021l.045-.002.045.002c4.737 0 9.287-1.429 13.158-4.133a1.797 1.797 0 00-2.059-2.946zM9.751 37.087a1.797 1.797 0 00-2.638 2.44c.405.438.833.866 1.271 1.272.346.32.783.477 1.22.477a1.797 1.797 0 001.221-3.116 19.44 19.44 0 01-1.074-1.073zM5.8 30.666a1.797 1.797 0 10-3.37 1.25c.209.56.441 1.118.693 1.66a1.797 1.797 0 103.26-1.512 19.39 19.39 0 01-.583-1.398zM17.249 42.11a19.304 19.304 0 01-1.4-.583 1.796 1.796 0 10-1.513 3.26c.543.252 1.102.485 1.663.692a1.793 1.793 0 002.31-1.06 1.797 1.797 0 00-1.06-2.309zM2.89 26.604a1.796 1.796 0 001.72-1.87c-.01-.273-.016-.55-.016-.824a1.797 1.797 0 10-3.594 0c0 .324.007.651.02.973a1.797 1.797 0 001.87 1.72zm14.24-1.686c.566-.46 1.176-.859 1.818-1.194a6.8 6.8 0 01-1.686-4.486 6.836 6.836 0 016.828-6.828 6.836 6.836 0 016.828 6.828 6.798 6.798 0 01-1.687 4.486 10.796 10.796 0 015.568 7.32 3.304 3.304 0 01-.67 2.774 3.323 3.323 0 01-2.593 1.233H16.644a3.323 3.323 0 01-2.593-1.233 3.306 3.306 0 01-.67-2.775 10.795 10.795 0 013.749-6.125zm3.726-5.68a3.238 3.238 0 003.234 3.235 3.238 3.238 0 003.234-3.235 3.238 3.238 0 00-3.234-3.234 3.238 3.238 0 00-3.235 3.234zm-3.882 12.219h14.232c-.82-3.143-3.734-5.39-7.055-5.39h-.122c-3.322 0-6.236 2.247-7.055 5.39z" fill="url(#paint0_linear)"/><defs><linearGradient id="paint0_linear" x1="47" y1="23.955" x2="-1.875" y2="23.955" gradientUnits="userSpaceOnUse"><stop stop-color="#F3E485"/><stop offset="1" stop-color="#B18145"/></linearGradient></defs></svg>