<svg width="48" height="48" fill="none" xmlns="http://www.w3.org/2000/svg"><path d="M10.599 8.892a1.796 1.796 0 11-3.592 0 1.796 1.796 0 013.592 0zM22.186 30.09c0 .992-.805 1.797-1.797 1.797h-3.053v6.018a1.796 1.796 0 01-3.593 0v-6.018H7.186a3.597 3.597 0 00-3.593 3.593v3.323a3.597 3.597 0 003.593 3.593h11.407a1.796 1.796 0 110 3.592H7.186C3.224 45.988 0 42.765 0 38.803V35.48a7.17 7.17 0 012.44-5.39A7.167 7.167 0 010 24.7v-3.412a7.17 7.17 0 012.44-5.39A7.169 7.169 0 010 10.509V7.187C0 3.224 3.224 0 7.186 0H35.21c3.962 0 7.186 3.224 7.186 7.186v3.323a7.17 7.17 0 01-2.438 5.387 7.17 7.17 0 011.498 1.838 1.796 1.796 0 11-3.121 1.779 3.605 3.605 0 00-3.125-1.818H17.336v6.108a1.797 1.797 0 01-3.593 0v-6.108H7.186a3.597 3.597 0 00-3.593 3.593V24.7a3.597 3.597 0 003.593 3.593h13.203c.992 0 1.797.804 1.797 1.796zm-15-15.988H35.21a3.597 3.597 0 003.593-3.593V7.186a3.597 3.597 0 00-3.593-3.593H17.336V9.61a1.797 1.797 0 01-3.593 0V3.593H7.186a3.597 3.597 0 00-3.593 3.593v3.323a3.597 3.597 0 003.593 3.593zm-.18 23.084a1.797 1.797 0 103.593 0 1.797 1.797 0 00-3.593 0zm0-14.192a1.796 1.796 0 103.593 0 1.796 1.796 0 00-3.593 0zM45.46 42.931L33.841 31.364c2.138-2.254 4.375-3.328 6.04-4.127.568-.272 1.06-.508 1.492-.762a1.796 1.796 0 00-.9-3.344h-.088l-.101.001c-.269.017-6.071.415-10.672 4.03l-1.126-1.127a1.796 1.796 0 10-2.54 2.54l1.125 1.127c-3.613 4.6-4.012 10.403-4.029 10.671v.036a1.992 1.992 0 00.01.282l.012.085.016.081.022.093.021.072a2 2 0 00.062.166 1.556 1.556 0 00.08.163c.012.022.023.044.037.065.018.03.039.061.06.092a1.735 1.735 0 00.111.144l.026.03c.03.034.063.067.096.099l.024.022a1.846 1.846 0 00.245.19l.035.022c.038.022.076.044.114.063l.044.022.064.032c.018.008.037.013.055.02l.043.016c.045.017.09.032.137.045l.019.005c.153.04.307.063.46.063.67 0 1.308-.378 1.616-1.014l.006-.013.027-.055c1.067-2.461 2.972-5.375 4.755-7.355l11.686 11.633c.35.349.809.523 1.267.523a1.797 1.797 0 001.268-3.07z" fill="url(#paint0_linear)"/><defs><linearGradient id="paint0_linear" x1="45.988" y1="23" x2="-2.874" y2="23" gradientUnits="userSpaceOnUse"><stop stop-color="#F3E485"/><stop offset="1" stop-color="#B18145"/></linearGradient></defs></svg>