<svg width="150" height="49" fill="none" xmlns="http://www.w3.org/2000/svg"><g clip-path="url(#clip0)"><path d="M149.756 42.37a6.634 6.634 0 01-6.631 6.63H6.631A6.634 6.634 0 010 42.37V6.63A6.615 6.615 0 016.63 0h136.523a6.634 6.634 0 016.631 6.63v35.74h-.028z" fill="#000"/><path d="M149.284 41.87h-.028v.5c0 3.37-2.734 6.13-6.131 6.13H6.631A6.134 6.134 0 01.5 42.37V6.63A6.115 6.115 0 016.63.5h136.523a6.134 6.134 0 016.131 6.13v35.24z" stroke="#fff" stroke-opacity=".25"/><path d="M44.934 30.467c-.665 1.448-.973 2.112-1.804 3.394-1.187 1.804-2.848 4.035-4.89 4.035-1.827.024-2.302-1.187-4.77-1.187-2.468.024-2.99 1.187-4.818 1.187-2.065-.024-3.655-2.018-4.818-3.821-3.3-5.008-3.632-10.895-1.614-14.028 1.448-2.23 3.726-3.512 5.862-3.512 2.184 0 3.56 1.186 5.364 1.186 1.757 0 2.825-1.186 5.34-1.186 1.9 0 3.917 1.044 5.365 2.824-4.724 2.587-3.964 9.304.783 11.108z" fill="#fff"/><path d="M36.864 14.517c.925-1.186 1.614-2.824 1.353-4.533-1.496.095-3.252 1.044-4.273 2.302-.925 1.116-1.685 2.8-1.4 4.415 1.638.047 3.323-.926 4.32-2.184zm18.11 5.459l-4.723 13.885h2.16l1.4-4.272h4.557l1.448 4.272h2.231L57.3 19.976h-2.326zm1.116 2.279c.166.617.332 1.258.546 1.97l1.281 3.678H54.31l1.258-3.702c.19-.617.356-1.258.522-1.946zm12.08 1.329c-1.423 0-2.586.546-3.346 1.614l-.095-1.377h-1.922v.166c.047.855.07 1.804.07 3.157V37.85h2.113v-4.985c.641.784 1.685 1.234 2.872 1.234 1.234 0 2.35-.474 3.18-1.352.926-.974 1.4-2.374 1.4-4.035 0-1.472-.426-2.754-1.21-3.68-.76-.949-1.85-1.447-3.061-1.447zm-.522 1.733c1.876 0 2.706 1.732 2.706 3.465 0 2.207-1.068 3.584-2.8 3.584a2.54 2.54 0 01-2.469-1.946 2.784 2.784 0 01-.071-.689v-1.685a2.3 2.3 0 01.071-.522c0-.047.024-.119.024-.166.308-1.21 1.353-2.041 2.54-2.041zm11.346-1.733c-1.424 0-2.588.546-3.347 1.614l-.095-1.377h-1.899v.166c.048.855.072 1.804.072 3.157V37.85h2.112v-4.985c.64.784 1.685 1.234 2.872 1.234 1.234 0 2.35-.474 3.18-1.352.926-.974 1.4-2.374 1.4-4.035 0-1.472-.427-2.754-1.21-3.68a3.915 3.915 0 00-3.085-1.447zm-.523 1.733c1.876 0 2.706 1.732 2.706 3.465 0 2.207-1.068 3.584-2.8 3.584a2.56 2.56 0 01-2.469-1.946 2.784 2.784 0 01-.071-.689v-1.685a2.3 2.3 0 01.071-.522c0-.047.024-.119.024-.166.308-1.21 1.353-2.041 2.54-2.041zm14.075.545c-1.97-.76-2.587-1.353-2.587-2.468 0-.926.736-1.875 2.397-1.875 1.353 0 2.232.475 2.469.617l.19.119.593-1.757-.118-.07c-.356-.215-1.353-.69-3.062-.69-2.682 0-4.557 1.591-4.557 3.846 0 1.827 1.163 3.109 3.678 4.01 1.78.665 2.445 1.354 2.445 2.517 0 1.329-1.02 2.136-2.682 2.136-1.068 0-2.183-.309-3.038-.855l-.19-.118-.57 1.804.096.07c.783.523 2.278.903 3.56.903 3.608 0 4.89-2.208 4.89-4.083.023-1.922-.998-3.109-3.514-4.106zm7.31-4.462l-2.064.641v1.757h-1.52v1.685h1.52v5.15c0 1.234.237 2.113.735 2.658.475.523 1.187.807 2.041.807.784 0 1.353-.166 1.614-.26l.119-.048-.095-1.685-.19.07a3.495 3.495 0 01-.973.12c-.807 0-1.163-.523-1.163-1.733v-5.08h2.54v-1.684h-2.54V21.4h-.024zm7.762 2.184c-2.943 0-4.984 2.184-4.984 5.34 0 3.038 1.993 5.174 4.842 5.174h.023c2.398 0 4.985-1.685 4.985-5.364 0-1.495-.451-2.777-1.329-3.726-.926-.926-2.137-1.424-3.537-1.424zm-.071 1.638c1.899 0 2.753 1.851 2.753 3.56 0 2.112-1.163 3.631-2.801 3.631h-.023c-1.591 0-2.754-1.495-2.754-3.584.024-1.78.879-3.607 2.825-3.607zm11.345-1.543l-.119-.024a1.974 1.974 0 00-.522-.071c-1.092 0-2.089.64-2.635 1.685l-.071-1.471h-1.875l.024.166c.047.83.071 1.756.071 3.014l-.024 6.86h2.113v-5.365c0-.284.023-.57.047-.807.237-1.281 1.115-2.112 2.207-2.112.214 0 .38.024.57.024l.214.023V23.68zm4.723-.119c-2.801 0-4.747 2.231-4.747 5.435 0 3.086 1.946 5.08 4.961 5.08 1.59 0 2.682-.357 3.323-.641l.118-.048-.403-1.566-.166.07c-.57.238-1.33.476-2.635.476-.902 0-3.014-.309-3.157-3.038l6.788.023.024-.142c.048-.214.071-.498.071-.878 0-2.208-1.091-4.77-4.177-4.77zm-.142 1.59c.641 0 1.163.19 1.542.594.594.617.712 1.519.712 1.946h-4.794c.214-1.21.973-2.54 2.54-2.54zM50.251 10.482a16.417 16.417 0 012.017-.142c1.353 0 2.326.285 2.967.807.665.546 1.045 1.305 1.045 2.373 0 1.068-.38 1.947-1.045 2.564-.688.617-1.827.949-3.228.949a18.03 18.03 0 01-1.732-.071v-6.48h-.024zm.973 5.839c.237.047.594.047.95.047 2.017 0 3.109-1.02 3.109-2.776 0-1.567-.973-2.54-2.967-2.54a6.02 6.02 0 00-1.116.095v5.174h.024zm8.426.759c-1.4 0-2.516-.925-2.516-2.42 0-1.59 1.163-2.516 2.61-2.516 1.496 0 2.517.973 2.517 2.421 0 1.756-1.353 2.516-2.611 2.516zm.023-.64c.902 0 1.59-.76 1.59-1.851 0-.807-.45-1.804-1.566-1.804-1.115 0-1.614.925-1.614 1.827.024 1.045.665 1.828 1.59 1.828zm4.107-4.178l.711 2.398c.143.522.285 1.02.38 1.519h.024c.119-.475.285-.973.475-1.496l.854-2.397h.807l.807 2.35c.19.546.356 1.068.475 1.543h.023c.095-.475.238-.973.404-1.543l.736-2.373h.95l-1.686 4.723h-.878l-.807-2.255c-.19-.546-.333-.997-.475-1.567h-.024a9.965 9.965 0 01-.474 1.567l-.855 2.231h-.878l-1.59-4.723h1.02v.023zm7.596 1.258c0-.498 0-.878-.048-1.281h.855l.047.76h.024c.26-.428.878-.879 1.732-.879.736 0 1.852.38 1.852 2.018v2.824h-.95v-2.706c0-.76-.308-1.4-1.21-1.4-.617 0-1.116.403-1.282.878a1.108 1.108 0 00-.071.404v2.848h-.95V13.52zm6.004-3.465h.95v6.93h-.95v-6.93zm4.675 7.025c-1.4 0-2.516-.925-2.516-2.42 0-1.59 1.163-2.516 2.61-2.516 1.496 0 2.517.973 2.517 2.421 0 1.756-1.353 2.516-2.611 2.516zm.024-.64c.902 0 1.59-.76 1.59-1.851 0-.807-.451-1.804-1.567-1.804-1.115 0-1.614.925-1.614 1.827.024 1.045.665 1.828 1.59 1.828zm7.477-.593c0 .403.023.807.07 1.139h-.854l-.095-.594h-.023c-.285.38-.855.713-1.614.713-1.068 0-1.614-.665-1.614-1.353 0-1.14 1.115-1.757 3.156-1.757V13.9c0-.38-.118-1.091-1.186-1.091-.499 0-.997.118-1.377.356l-.214-.57c.428-.238 1.069-.404 1.733-.404 1.614 0 1.994.973 1.994 1.923v1.732h.024zm-.926-1.282c-1.044-.024-2.231.142-2.231 1.068 0 .57.403.83.878.83.688 0 1.14-.38 1.282-.783.023-.095.047-.19.047-.284v-.831h.024zm6.978-4.51v5.697c0 .427 0 .901.048 1.21H94.8l-.047-.83h-.024c-.285.521-.925.925-1.78.925-1.258 0-2.255-.973-2.255-2.397 0-1.59 1.092-2.54 2.35-2.54.807 0 1.353.332 1.59.712h.024v-2.777h.95zm-.949 4.13c0-.119 0-.261-.047-.38-.143-.546-.665-.973-1.377-.973-.997 0-1.567.783-1.567 1.804 0 .973.523 1.756 1.543 1.756.641 0 1.234-.38 1.4-1.02.024-.119.048-.238.048-.38v-.807zm6.977 2.895c-1.4 0-2.516-.925-2.516-2.42 0-1.59 1.163-2.516 2.611-2.516 1.495 0 2.516.973 2.516 2.421 0 1.756-1.353 2.516-2.611 2.516zm.024-.64c.902 0 1.59-.76 1.59-1.851 0-.807-.451-1.804-1.567-1.804-1.115 0-1.613.925-1.613 1.827 0 1.045.664 1.828 1.59 1.828zm3.774-2.92c0-.498 0-.878-.047-1.281h.854l.048.76h.023c.261-.428.879-.879 1.733-.879.736 0 1.851.38 1.851 2.018v2.824h-.949v-2.706c0-.76-.309-1.4-1.211-1.4-.617 0-1.115.403-1.281.878a1.097 1.097 0 00-.071.404v2.848h-.95V13.52zm9.47-2.397v1.14h1.376v.664h-1.376v2.54c0 .593.19.925.712.925.261 0 .403-.024.546-.047l.047.664a3.29 3.29 0 01-.854.119c-.451 0-.807-.143-1.021-.356-.261-.261-.38-.688-.38-1.234v-2.635h-.807v-.664h.807v-.879l.95-.237zm2.445-1.068h.949v2.943h.024c.142-.237.38-.474.688-.593.285-.166.617-.237.973-.237.712 0 1.828.38 1.828 2.017v2.8h-.95v-2.729c0-.76-.308-1.4-1.21-1.4a1.37 1.37 0 00-1.282.854 1.032 1.032 0 00-.071.404v2.848h-.949v-6.907zm6.551 4.7c.023 1.163.83 1.637 1.78 1.637.688 0 1.115-.118 1.447-.237l.167.593c-.333.143-.926.309-1.757.309-1.614 0-2.587-.973-2.587-2.373 0-1.425.95-2.564 2.469-2.564 1.708 0 2.159 1.353 2.159 2.231 0 .166 0 .309-.023.404H123.9zm2.777-.617c0-.546-.262-1.4-1.306-1.4-.973 0-1.376.806-1.471 1.4h2.777z" fill="#fff"/></g><defs><clipPath id="clip0"><path fill="#fff" d="M0 0h149.756v49H0z"/></clipPath></defs></svg>