<svg width="48" height="48" fill="none" xmlns="http://www.w3.org/2000/svg"><path d="M43.106 9.314l-18.382-8.16a1.793 1.793 0 00-1.461.003L5.06 9.317c-.645.289-1.06.93-1.06 1.636v14.168c0 5.354 2.116 10.828 5.805 15.017 1.856 2.107 3.995 3.774 6.359 4.955C18.695 46.358 21.36 47 24.086 47c3.815 0 7.529-1.235 10.74-3.571a1.793 1.793 0 10-2.111-2.9c-2.593 1.887-5.577 2.884-8.63 2.884-8.634 0-16.498-8.718-16.498-18.292V12.115L24 4.757l16.585 7.362v13.002c0 3.302-.949 6.644-2.744 9.665a1.793 1.793 0 103.084 1.832c2.124-3.575 3.247-7.55 3.247-11.497V10.953c0-.709-.418-1.351-1.066-1.639z" fill="url(#paint0_linear)"/><path d="M32.043 16.181l-8.84 12.348c-.24.28-.543.34-.706.35a1.015 1.015 0 01-.767-.273l-5.713-5.576a1.793 1.793 0 10-2.505 2.567l5.722 5.585.016.016a4.624 4.624 0 003.486 1.26 4.622 4.622 0 003.348-1.791l8.875-12.398a1.793 1.793 0 00-2.916-2.088z" fill="url(#paint1_linear)"/><defs><linearGradient id="paint0_linear" x1="44.172" y1="24" x2="1.489" y2="24" gradientUnits="userSpaceOnUse"><stop stop-color="#F3E485"/><stop offset="1" stop-color="#B18145"/></linearGradient><linearGradient id="paint1_linear" x1="35.295" y1="23.95" x2="11.575" y2="23.95" gradientUnits="userSpaceOnUse"><stop stop-color="#F3E485"/><stop offset="1" stop-color="#B18145"/></linearGradient></defs></svg>