<svg width="39" height="46" fill="none" xmlns="http://www.w3.org/2000/svg"><path d="M31.805 38.813c0 3.963-3.224 7.187-7.188 7.187H7.187C3.224 46 0 42.776 0 38.812V7.189C0 3.224 3.224 0 7.188 0h17.43c3.963 0 7.187 3.224 7.187 7.188a1.797 1.797 0 11-3.594 0 3.598 3.598 0 00-3.594-3.594H7.187a3.598 3.598 0 00-3.593 3.594v31.625a3.598 3.598 0 003.594 3.593h17.43a3.598 3.598 0 003.593-3.593 1.797 1.797 0 113.594 0zm-17.7-.978a1.797 1.797 0 103.594 0 1.797 1.797 0 00-3.594 0zm5.391-29.648c0-.993-.804-1.797-1.797-1.797h-3.594a1.797 1.797 0 100 3.594H17.7c.993 0 1.797-.805 1.797-1.797zm19.28 18.605l-.727 1.445a1.797 1.797 0 01-2.115.916l-2.043-.605a7.122 7.122 0 01-1.668 1.035l-.33 2.067a1.797 1.797 0 01-1.775 1.513H28.5c-.87 0-1.615-.622-1.769-1.478l-.382-2.123a7.149 7.149 0 01-1.399-.836l-2.08.724a1.797 1.797 0 01-2.163-.83l-.78-1.415a1.797 1.797 0 01.466-2.284l1.748-1.365-.006-.107-.006-.11a7.306 7.306 0 010-.695l-1.679-1.161a1.797 1.797 0 01-.584-2.286l.767-1.525a1.797 1.797 0 012.115-.916l2.096.62a7.16 7.16 0 011.498-.914l.288-2.056a1.797 1.797 0 011.78-1.548h1.707c.87 0 1.614.623 1.768 1.48l.382 2.122c.036.016.07.034.105.05l.11.055c.077.037.152.075.226.115l.073.041a7.091 7.091 0 01.837.539l2.038-.755a1.797 1.797 0 012.198.817l.824 1.495a1.797 1.797 0 01-.466 2.283l-1.738 1.36.007.112a5.667 5.667 0 01.015.439c0 .09-.002.18-.005.27l1.729 1.246c.716.516.95 1.476.555 2.265zm-13.06-3.781c0 .069.001.138.006.207a3.263 3.263 0 00.018.208l.008.061c.006.05.014.098.022.147l.01.06c.011.051.022.103.035.154a3.593 3.593 0 001.001 1.748c.022.021.044.043.067.063a3.3 3.3 0 00.146.127l.078.062a3.87 3.87 0 00.181.133 3.532 3.532 0 00.343.206c.032.017.065.035.098.05a4.215 4.215 0 00.465.189 3.578 3.578 0 002.812-.249l.096-.054c.057-.033.113-.067.168-.103.028-.019.057-.037.084-.057l.1-.07a3.562 3.562 0 00.356-.305l.04-.038a3.588 3.588 0 00.978-1.808l.02-.11.012-.067.021-.165.002-.017a3.593 3.593 0 00.013-.579c0-.02-.003-.038-.004-.058a3.577 3.577 0 00-.089-.57 3.587 3.587 0 00-1.024-1.77l-.047-.047a3.694 3.694 0 00-.154-.132l-.069-.054a3.96 3.96 0 00-.105-.079c-.025-.018-.05-.037-.077-.055a3.349 3.349 0 00-.16-.103l-.086-.05a4.489 4.489 0 00-.101-.055l-.094-.049a3.887 3.887 0 00-.465-.188 3.584 3.584 0 00-2.631.161l-.045.02a3.09 3.09 0 00-.137.071l-.032.018a3.58 3.58 0 00-.41.264l-.02.014c-.08.061-.157.125-.233.192l-.025.023a3.718 3.718 0 00-.11.105l-.038.039a3.593 3.593 0 00-.971 1.893l-.001.009a3.95 3.95 0 00-.028.19l-.002.015-.015.179-.002.024a3.51 3.51 0 00-.006.2z" fill="url(#paint0_linear)"/><defs><linearGradient id="paint0_linear" x1="38.967" y1="23" x2="-2.435" y2="23" gradientUnits="userSpaceOnUse"><stop stop-color="#F3E485"/><stop offset="1" stop-color="#B18145"/></linearGradient></defs></svg>