<svg width="48" height="48" fill="none" xmlns="http://www.w3.org/2000/svg"><path d="M38.008 32.636c.992 0 1.797-.805 1.797-1.797V8.188A7.195 7.195 0 0032.617 1h-17.43C11.224 1 8 4.224 8 8.188v31.624A7.195 7.195 0 0015.188 47h17.43c3.962 0 7.187-3.224 7.187-7.188a1.797 1.797 0 00-3.594 0 3.598 3.598 0 01-3.594 3.594h-17.43a3.598 3.598 0 01-3.593-3.593V8.186a3.598 3.598 0 013.594-3.593h17.43a3.598 3.598 0 013.593 3.593V30.84c0 .992.804 1.797 1.797 1.797z" fill="url(#paint0_linear)"/><path d="M26.134 26.41c2.492 0 4.032-2.204 4.032-4.582 0-2.285-1.989-4.62-4.222-4.822-1.671-.014-2.891 0-5.78 0v6.217h-.736c-1.994 0-1.812 3.187 0 3.187h.736V31h3.618v-4.59h2.352zm-.588-5.804c.424 0 1.313.338 1.313 1.222 0 1.019-.834 1.344-1.208 1.395h-1.869v-2.617h1.764z" fill="url(#paint1_linear)"/><path d="M23.902 40.632a1.797 1.797 0 100-3.594 1.797 1.797 0 000 3.594z" fill="url(#paint2_linear)"/><path d="M27.496 9.187c0-.993-.804-1.797-1.797-1.797h-3.594a1.797 1.797 0 100 3.593H25.7c.993 0 1.797-.804 1.797-1.796z" fill="url(#paint3_linear)"/><defs><linearGradient id="paint0_linear" x1="39.805" y1="24" x2="6.012" y2="24" gradientUnits="userSpaceOnUse"><stop stop-color="#F3E485"/><stop offset="1" stop-color="#B18145"/></linearGradient><linearGradient id="paint1_linear" x1="30.166" y1="24" x2="17.24" y2="24" gradientUnits="userSpaceOnUse"><stop stop-color="#F3E485"/><stop offset="1" stop-color="#B18145"/></linearGradient><linearGradient id="paint2_linear" x1="25.699" y1="38.835" x2="21.881" y2="38.835" gradientUnits="userSpaceOnUse"><stop stop-color="#F3E485"/><stop offset="1" stop-color="#B18145"/></linearGradient><linearGradient id="paint3_linear" x1="27.496" y1="9.187" x2="19.859" y2="9.187" gradientUnits="userSpaceOnUse"><stop stop-color="#F3E485"/><stop offset="1" stop-color="#B18145"/></linearGradient></defs></svg>