<svg width="48" height="48" fill="none" xmlns="http://www.w3.org/2000/svg"><path d="M37.928 22.962a2.245 2.245 0 002.243 2.242 1.794 1.794 0 110 3.587 5.839 5.839 0 01-5.546-4.035H28.25v11.658c0 .99.805 1.794 1.794 1.794h4.612a5.838 5.838 0 015.515-3.946A5.836 5.836 0 0146 40.092a1.794 1.794 0 01-3.587 0 2.245 2.245 0 00-2.242-2.243 2.245 2.245 0 00-2.242 2.242 2.245 2.245 0 002.242 2.242 1.794 1.794 0 110 3.588 5.84 5.84 0 01-5.575-4.126h-4.552a5.387 5.387 0 01-5.381-5.38v-11.66h-6.727v2.867a5.39 5.39 0 01-3.587 5.074v11.428a1.793 1.793 0 11-3.587 0V31.209c0-.99.803-1.793 1.794-1.793.989 0 1.793-.805 1.793-1.794v-9.775c0-.99-.804-1.794-1.793-1.794H5.38c-.99 0-1.794.805-1.794 1.794v9.775c0 .989.805 1.794 1.794 1.794.99 0 1.794.803 1.794 1.793v12.915a1.794 1.794 0 11-3.588 0V32.695A5.39 5.39 0 010 27.622v-9.775a5.387 5.387 0 015.38-5.381h7.176a5.387 5.387 0 015.38 5.381v3.321h6.727V9.51a5.387 5.387 0 015.38-5.381h4.553A5.84 5.84 0 0140.17.004 5.836 5.836 0 0146 5.833a1.794 1.794 0 11-3.587 0A2.244 2.244 0 0040.17 3.59a2.244 2.244 0 00-2.242 2.242 2.245 2.245 0 002.242 2.242 1.793 1.793 0 010 3.587 5.838 5.838 0 01-5.516-3.946h-4.611c-.99 0-1.794.805-1.794 1.794v11.658h6.375a5.839 5.839 0 015.546-4.035A5.836 5.836 0 0146 22.963a1.794 1.794 0 11-3.587 0 2.244 2.244 0 00-2.242-2.243 2.244 2.244 0 00-2.242 2.242zM3.588 5.381A5.387 5.387 0 018.967 0a5.387 5.387 0 015.381 5.38 5.387 5.387 0 01-5.38 5.382A5.387 5.387 0 013.586 5.38zm3.587 0c0 .989.804 1.794 1.793 1.794.99 0 1.794-.805 1.794-1.794 0-.99-.805-1.794-1.794-1.794s-1.793.805-1.793 1.794z" fill="#fff"/></svg>