<svg width="90" height="90" fill="none" xmlns="http://www.w3.org/2000/svg"><path fill="url(#paint0_linear)" d="M0 0h90v90H0z"/><path d="M42.86 45.594c0 3.146-.652 5.552-1.954 7.218-1.302 1.667-3.208 2.5-5.718 2.5-2.48 0-4.376-.817-5.688-2.453-1.313-1.635-1.984-3.979-2.016-7.03V41.64c0-3.177.657-5.589 1.97-7.235 1.322-1.646 3.223-2.468 5.702-2.468 2.48 0 4.375.817 5.688 2.453 1.312 1.625 1.984 3.963 2.015 7.015v4.188zM38.343 41c0-1.885-.26-3.255-.782-4.11-.51-.864-1.312-1.296-2.406-1.296-1.062 0-1.849.411-2.36 1.234-.5.813-.765 2.089-.796 3.828v5.532c0 1.854.25 3.234.75 4.14.51.896 1.323 1.344 2.438 1.344 1.104 0 1.9-.432 2.39-1.297.49-.865.745-2.188.766-3.969V41zM56.89 55h-4.516V37.594l-5.39 1.672v-3.672l9.421-3.375h.485V55zm7.828-2.219c0-.718.24-1.302.719-1.75.49-.448 1.099-.672 1.828-.672.74 0 1.349.224 1.828.672.49.448.734 1.032.734 1.75 0 .709-.24 1.287-.719 1.735-.479.437-1.093.656-1.843.656-.74 0-1.35-.219-1.829-.656-.479-.448-.718-1.026-.718-1.735z" fill="#fff"/><defs><linearGradient id="paint0_linear" x1="90" y1="45" x2="-5.625" y2="45" gradientUnits="userSpaceOnUse"><stop stop-color="#2B353A"/><stop offset="1" stop-color="#121212"/></linearGradient></defs></svg>