<svg width="54" height="54" fill="none" xmlns="http://www.w3.org/2000/svg"><path d="M26.973.333C12.253.333.333 12.28.333 27c0 14.72 11.92 26.666 26.64 26.666C41.72 53.666 53.666 41.72 53.666 27S41.72.333 26.973.333zm18.48 16h-7.867C36.733 13 35.506 9.8 33.906 6.84a21.412 21.412 0 0111.547 9.493zM27 5.773a37.567 37.567 0 015.093 10.56H21.906A37.564 37.564 0 0127 5.773zM6.36 32.333c-.427-1.707-.694-3.493-.694-5.333 0-1.84.267-3.627.694-5.334h9.013C15.16 23.426 15 25.186 15 27c0 1.813.16 3.573.373 5.333H6.36zm2.186 5.333h7.867c.853 3.334 2.08 6.534 3.68 9.494a21.298 21.298 0 01-11.547-9.494zm7.867-21.333H8.546A21.298 21.298 0 0120.093 6.84c-1.6 2.96-2.827 6.16-3.68 9.493zM27 48.226a37.563 37.563 0 01-5.094-10.56h10.187A37.566 37.566 0 0127 48.226zm6.24-15.893H20.76c-.24-1.76-.427-3.52-.427-5.333 0-1.814.187-3.6.427-5.334h12.48c.24 1.734.426 3.52.426 5.334 0 1.813-.186 3.573-.426 5.333zm.666 14.827c1.6-2.96 2.827-6.16 3.68-9.494h7.867a21.412 21.412 0 01-11.547 9.494zm4.72-14.827c.214-1.76.374-3.52.374-5.333 0-1.814-.16-3.574-.374-5.334h9.014c.426 1.707.693 3.494.693 5.334 0 1.84-.267 3.626-.693 5.333h-9.014z" fill="#fff"/></svg>