<svg width="150" height="49" fill="none" xmlns="http://www.w3.org/2000/svg"><g clip-path="url(#clip0)"><path d="M149.812 42.38a6.612 6.612 0 01-6.62 6.62H6.619A6.612 6.612 0 010 42.38V6.62A6.612 6.612 0 016.62 0h136.572a6.612 6.612 0 016.62 6.62v35.76z" fill="#000"/><path d="M149.312 42.38a6.113 6.113 0 01-6.12 6.12H6.619A6.112 6.112 0 01.5 42.38V6.62A6.112 6.112 0 016.62.5h136.572a6.113 6.113 0 016.12 6.12v35.76z" stroke="#fff" stroke-opacity=".25"/><path d="M17.977 10.205v28.548l14.388-14.261-14.388-14.287z" fill="url(#paint0_linear)"/><path d="M36.22 20.637l-5.795-3.351-12.448-7.182v.101l14.388 14.287 3.855-3.855z" fill="url(#paint1_linear)"/><path d="M17.977 38.753v.101l12.448-7.181 5.795-3.351-3.855-3.83-14.388 14.261z" fill="url(#paint2_linear)"/><path d="M36.22 20.637l-3.855 3.855 3.855 3.83 6.652-3.83-6.652-3.855z" fill="url(#paint3_linear)"/><path d="M108.612 30.06a3.65 3.65 0 01-1.487-.302 2.706 2.706 0 01-1.134-.932h-.1c.05.479.1.932.1 1.386v3.426h-1.26V21.62h1.034l.176 1.134h.05c.328-.453.706-.78 1.134-.982.429-.202.932-.303 1.487-.303 1.108 0 1.94.378 2.545 1.134.604.756.907 1.814.907 3.175 0 1.36-.303 2.419-.907 3.175-.63.73-1.487 1.108-2.545 1.108zm-.202-7.534c-.856 0-1.461.227-1.839.706-.378.479-.58 1.21-.58 2.243v.277c0 1.159.202 1.99.58 2.494.378.504 1.008.756 1.864.756.706 0 1.285-.302 1.689-.882.403-.58.604-1.386.604-2.393 0-1.034-.201-1.84-.604-2.394-.404-.53-.958-.806-1.714-.806zm6.551 7.384h-1.26V18.116h1.26V29.91zm7.231 0l-.252-1.185h-.05c-.403.53-.831.882-1.235 1.058-.403.177-.932.277-1.537.277-.831 0-1.461-.201-1.94-.63-.479-.428-.705-1.032-.705-1.814 0-1.688 1.335-2.545 4.031-2.645l1.411-.05v-.505c0-.655-.151-1.134-.428-1.436-.277-.302-.731-.454-1.336-.454-.68 0-1.486.202-2.343.63l-.378-.957a5.677 5.677 0 011.336-.53 5.83 5.83 0 011.461-.2c.983 0 1.713.226 2.192.654.479.429.706 1.134.706 2.117v5.67h-.933zm-2.847-.883c.781 0 1.386-.226 1.839-.655.454-.428.681-1.033.681-1.814v-.756l-1.26.05c-1.008.026-1.713.202-2.167.48-.454.276-.655.705-.655 1.284 0 .454.126.807.403 1.033.277.252.655.378 1.159.378zm4.511-7.407h1.336l1.814 4.737c.403 1.083.655 1.864.731 2.343h.05c.076-.252.202-.706.403-1.31.202-.63.907-2.545 2.067-5.745h1.36l-3.553 9.424c-.352.932-.756 1.587-1.234 1.99-.479.403-1.059.58-1.739.58a5.79 5.79 0 01-1.134-.126v-1.008c.277.05.58.1.933.1.856 0 1.486-.478 1.839-1.46l.453-1.185-3.326-8.34zm-38.553.755c.403.328 1.235 1.034 1.235 2.344 0 1.285-.731 1.89-1.462 2.47-.227.226-.478.478-.478.856s.251.58.453.756l.63.479c.756.655 1.461 1.234 1.461 2.444 0 1.637-1.587 3.275-4.56 3.275-2.52 0-3.73-1.21-3.73-2.494 0-.63.303-1.512 1.336-2.117 1.084-.655 2.545-.756 3.326-.806-.252-.303-.53-.63-.53-1.184 0-.303.076-.48.177-.68-.201.024-.378.024-.554.024-1.84 0-2.873-1.36-2.873-2.72a3.04 3.04 0 011.11-2.319c.982-.806 2.166-.957 3.098-.957h3.578l-1.108.63h-1.109zm-1.235 7.71c-.15-.024-.226-.024-.403-.024-.151 0-1.083.025-1.814.277-.378.126-1.487.554-1.487 1.789 0 1.234 1.21 2.116 3.05 2.116 1.662 0 2.544-.806 2.544-1.864 0-.882-.554-1.36-1.89-2.293zm.504-3.3c.403-.403.429-.957.429-1.26 0-1.26-.756-3.2-2.193-3.2-.453 0-.932.227-1.209.58-.302.352-.378.831-.378 1.285 0 1.159.68 3.099 2.167 3.099.454 0 .907-.227 1.184-.504zm-10.204 3.023c-2.747 0-4.233-2.141-4.233-4.081 0-2.268 1.864-4.208 4.485-4.208 2.545 0 4.132 1.99 4.132 4.082.025 2.04-1.562 4.207-4.384 4.207zm2.167-1.41c.428-.555.529-1.26.529-1.916 0-1.537-.73-4.434-2.872-4.434-.58 0-1.134.227-1.563.58-.68.604-.806 1.36-.806 2.116 0 1.713.857 4.535 2.948 4.535.68.025 1.36-.327 1.764-.882zm-11.565 1.41c-2.747 0-4.234-2.141-4.234-4.081 0-2.268 1.865-4.208 4.485-4.208 2.545 0 4.133 1.99 4.133 4.082.025 2.04-1.563 4.207-4.385 4.207zm2.166-1.41c.429-.555.53-1.26.53-1.916 0-1.537-.731-4.434-2.873-4.434-.58 0-1.134.227-1.562.58-.68.604-.806 1.36-.806 2.116 0 1.713.856 4.535 2.948 4.535.68.025 1.36-.327 1.763-.882zm-7.71 1.133l-2.494.58c-1.008.151-1.915.302-2.873.302-4.812 0-6.652-3.527-6.652-6.3 0-3.375 2.596-6.525 7.03-6.525.933 0 1.84.151 2.671.378 1.31.378 1.915.806 2.293 1.083l-1.436 1.386-.605.151.428-.705c-.604-.58-1.663-1.638-3.729-1.638-2.746 0-4.838 2.091-4.838 5.14 0 3.276 2.369 6.35 6.174 6.35 1.108 0 1.688-.227 2.217-.428v-2.823l-2.62.152 1.385-.756h3.704l-.453.428c-.126.1-.151.151-.177.277-.025.151-.025.655-.025.832v2.116z" fill="#F9F9F9"/><path d="M90.822 29.027c-.58-.05-.705-.15-.705-.831v-9.953c.075-.605.252-.705.78-1.033h-2.469l-1.31.63h1.336v10.759c0 .353-.076.403-.48.932h3.075l.655-.378c-.302-.05-.58-.075-.882-.126zm7.081.177c-.202.1-.378.227-.58.302a4.183 4.183 0 01-1.688.328c-.555 0-1.411-.025-2.293-.68-1.235-.857-1.764-2.344-1.764-3.654 0-2.67 2.192-4.006 3.956-4.006.63 0 1.26.15 1.789.478.857.58 1.084 1.31 1.21 1.714l-4.057 1.663-1.336.1c.429 2.193 1.915 3.478 3.578 3.478.882 0 1.512-.303 2.117-.605l-.932.882zm-1.613-5.165c.328-.126.504-.227.504-.48 0-.68-.781-1.486-1.713-1.486-.706 0-1.991.53-1.991 2.394 0 .302.025.605.05.907l3.15-1.335zm3.3-2.394v1.134h-.151v-1.134h-.378v-.126h.882v.126h-.353zm1.537 1.134v-1.16l-.353 1.16h-.101l-.353-1.16v1.16h-.126v-1.26h.227l.328 1.008.328-1.008h.226v1.26h-.176z" fill="#F9F9F9"/><path d="M51.235 13.177h-.996c0-.146-.087-.527-.292-1.171h-1.465c-.205.644-.293 1.025-.293 1.171h-.937c0-.088.234-.761.732-2.02.498-1.26.732-1.963.732-2.08h1.201c0 .117.234.79.674 2.05.41 1.26.644 1.933.644 2.05zm-1.464-1.787c-.352-1.083-.527-1.669-.527-1.757h-.059c0 .088-.176.674-.556 1.758h1.142zm5.506 1.787h-.79c0-.088-.293-.527-.88-1.377-.614-.878-.936-1.464-1.024-1.786h-.059c.059.469.088.879.088 1.26 0 .527 0 1.142.059 1.903h-.762c.03-.644.059-1.377.059-2.138 0-.761-.03-1.406-.059-1.962h.937c0 .117.264.556.791 1.318.557.82.879 1.376.938 1.67h.058a10.148 10.148 0 01-.088-1.26c0-.557-.03-1.143-.058-1.758h.79a34.634 34.634 0 00-.058 1.963c.03.82.03 1.523.058 2.167zm4.569-2.197c0 .586-.205 1.113-.586 1.553-.38.44-.908.673-1.61.673-.323 0-.733 0-1.29-.029.03-.644.03-1.347.03-2.138 0-.761 0-1.406-.03-1.962h1.318c.762 0 1.318.175 1.64.556.352.38.528.82.528 1.347zm-.879.147c0-.41-.117-.732-.351-1.025-.235-.264-.586-.41-1.084-.41-.088 0-.205 0-.38.029.028.41.028.85.028 1.318 0 .498 0 .996.03 1.494.146.029.263.029.41.029.44 0 .79-.146.996-.41.263-.293.351-.615.351-1.025zm5.067 2.05h-.937c-.234-.732-.44-1.2-.556-1.377-.118-.175-.352-.263-.616-.263h-.351c0 .527 0 1.084.03 1.64h-.88c.03-.644.03-1.347.03-2.138 0-.761 0-1.406-.03-1.962h1.495c.967 0 1.435.322 1.435.995 0 .528-.263.88-.82 1.084v.059c.205.058.41.234.557.498.176.234.38.732.644 1.464zm-1.171-2.9c0-.41-.264-.615-.82-.615-.205 0-.381 0-.528.059.03.322.03.761.03 1.26h.293c.703 0 1.025-.235 1.025-.704zm5.682.791c0 .645-.205 1.172-.586 1.611-.38.41-.879.644-1.464.644-.557 0-1.026-.205-1.377-.585-.38-.381-.556-.879-.556-1.494 0-.644.204-1.171.585-1.61a1.95 1.95 0 011.465-.645c.556 0 1.025.205 1.376.586.381.38.557.878.557 1.493zm-.85.088c0-.44-.117-.79-.322-1.054-.234-.264-.498-.41-.82-.41-.293 0-.556.146-.79.41-.206.263-.323.615-.323 1.054 0 .44.117.79.352 1.054.234.264.498.41.82.41.293 0 .556-.146.79-.41.176-.292.293-.644.293-1.054zm2.637 2.021h-.879c.03-.644.03-1.377.03-2.138 0-.761 0-1.406-.03-1.962h.879c-.03.527-.03 1.171-.03 1.962 0 .79 0 1.494.03 2.138zM74.9 10.98c0 .586-.205 1.113-.585 1.553-.381.44-.908.673-1.611.673-.322 0-.732 0-1.289-.029.03-.644.03-1.347.03-2.138 0-.761 0-1.406-.03-1.962h1.318c.761 0 1.318.175 1.64.556.352.38.527.82.527 1.347zm-.878.147c0-.41-.117-.732-.352-1.025-.234-.264-.585-.41-1.083-.41-.088 0-.205 0-.381.029.03.41.03.85.03 1.318 0 .498 0 .996.028 1.494.147.029.264.029.41.029.44 0 .791-.146.996-.41.264-.293.352-.615.352-1.025zm6.912 2.05h-.995c0-.146-.088-.527-.293-1.171H78.18c-.205.644-.293 1.025-.293 1.171h-.937c0-.088.235-.761.732-2.02.498-1.26.733-1.963.733-2.08h1.2c0 .117.235.79.674 2.05.44 1.26.644 1.933.644 2.05zM79.5 11.39c-.351-1.083-.527-1.669-.527-1.757h-.058c0 .088-.176.674-.557 1.758H79.5zm5.124-1.23c0 .498-.176.879-.556 1.113-.381.235-.82.352-1.377.352h-.205c0 .38 0 .908.03 1.552h-.88c.03-.615.03-1.318.03-2.138 0-.761 0-1.406-.03-1.962h1.582c.41 0 .733.088.996.263.264.176.41.44.41.82zm-.82.176c0-.44-.293-.674-.908-.674-.146 0-.293.03-.469.059.03.41.03.85.03 1.347h.175c.791 0 1.172-.263 1.172-.732zm4.569-.176c0 .498-.176.879-.556 1.113-.381.235-.82.352-1.377.352h-.205c0 .38 0 .908.03 1.552h-.88c.03-.615.03-1.318.03-2.138 0-.761 0-1.406-.03-1.962h1.582c.41 0 .733.088.996.263.293.176.41.44.41.82zm-.79.176c0-.44-.293-.674-.909-.674-.146 0-.293.03-.468.059.03.41.03.85.03 1.347h.175c.79 0 1.171-.263 1.171-.732zm6.971.732c0 .645-.205 1.172-.586 1.611-.381.44-.879.644-1.465.644-.556 0-1.025-.205-1.376-.585-.38-.381-.557-.879-.557-1.494 0-.644.205-1.171.586-1.61a1.95 1.95 0 011.465-.645c.556 0 1.025.205 1.376.586.38.38.557.878.557 1.493zm-.88.088c0-.44-.116-.79-.321-1.054-.235-.264-.498-.41-.82-.41-.293 0-.557.146-.791.41-.205.263-.322.615-.322 1.054 0 .44.117.79.351 1.054.234.264.498.41.82.41.293 0 .557-.146.791-.41.205-.292.293-.644.293-1.054zm5.156 2.021h-.792c0-.088-.293-.527-.878-1.377-.615-.878-.938-1.464-1.025-1.786h-.059c.059.469.088.879.088 1.26 0 .527 0 1.142.058 1.903h-.761c.03-.644.058-1.377.058-2.138 0-.761-.029-1.406-.058-1.962h.937c0 .117.264.556.791 1.318.557.82.879 1.376.937 1.67h.059a10.13 10.13 0 01-.088-1.26c0-.557 0-1.143-.059-1.758h.791c-.03.528-.058 1.172-.058 1.963 0 .82.029 1.523.058 2.167z" fill="#F9FAFA"/></g><defs><linearGradient id="paint0_linear" x1="25.167" y1="10.208" x2="25.167" y2="38.757" gradientUnits="userSpaceOnUse"><stop stop-color="#5D7FAF"/><stop offset=".286" stop-color="#6C93B2"/><stop offset=".767" stop-color="#8CB9B8"/><stop offset="1" stop-color="#9CCCB9"/></linearGradient><linearGradient id="paint1_linear" x1="17.969" y1="17.294" x2="36.231" y2="17.294" gradientUnits="userSpaceOnUse"><stop stop-color="#81C0A9"/><stop offset="1" stop-color="#DFE798"/></linearGradient><linearGradient id="paint2_linear" x1="27.1" y1="24.483" x2="27.1" y2="38.861" gradientUnits="userSpaceOnUse"><stop stop-color="#D25951"/><stop offset=".167" stop-color="#C05E61"/><stop offset=".575" stop-color="#9A6385"/><stop offset=".862" stop-color="#84639C"/><stop offset="1" stop-color="#7E64A6"/></linearGradient><linearGradient id="paint3_linear" x1="37.619" y1="20.648" x2="37.619" y2="28.316" gradientUnits="userSpaceOnUse"><stop stop-color="#DF847A"/><stop offset=".119" stop-color="#E08A7A"/><stop offset=".713" stop-color="#EBB078"/><stop offset="1" stop-color="#F1C178"/></linearGradient><clipPath id="clip0"><path fill="#fff" d="M0 0h149.812v49H0z"/></clipPath></defs></svg>