<svg width="60" height="42" fill="none" xmlns="http://www.w3.org/2000/svg"><path d="M21.2 21.2c5.661 0 10.267-4.605 10.267-10.267C31.466 5.272 26.86.667 21.2.667S10.933 5.272 10.933 10.933c0 5.662 4.606 10.267 10.267 10.267zm0-14.667c2.434 0 4.4 1.965 4.4 4.4 0 2.435-1.966 4.4-4.4 4.4a4.394 4.394 0 01-4.4-4.4c0-2.434 1.965-4.4 4.4-4.4zm0 19.8C14.336 26.333.667 29.765.667 36.6v5.133h41.066V36.6c0-6.835-13.67-10.267-20.533-10.267zM7.53 35.867C9.995 34.165 15.95 32.2 21.2 32.2s11.205 1.965 13.67 3.666H7.53zm34.32-9.358c3.403 2.464 5.75 5.75 5.75 10.09v5.134h11.733V36.6c0-5.926-10.267-9.299-17.483-10.09zM38.8 21.2c5.661 0 10.267-4.605 10.267-10.266S44.46.667 38.8.667c-1.584 0-3.05.38-4.4 1.026a15.96 15.96 0 012.933 9.24 15.96 15.96 0 01-2.933 9.24c1.35.646 2.816 1.027 4.4 1.027z" fill="#fff"/></svg>