<svg width="200" height="24" fill="none" xmlns="http://www.w3.org/2000/svg"><path fill-rule="evenodd" clip-rule="evenodd" d="M148.949 22.88c1.402.653 3.085 1.027 4.862 1.027 1.683 0 3.272-.28 4.862-1.121 1.496-.654 2.805-1.494 3.833-2.615 1.122-1.027 1.964-2.334 2.525-3.735.654-1.494.935-2.895.935-4.483 0-1.494-.281-2.988-.842-4.389a12.677 12.677 0 00-2.431-3.829c-1.028-1.12-2.244-2.054-3.74-2.708C157.551.374 155.868 0 154.091 0c-1.776 0-3.366.28-4.862.934s-2.805 1.494-3.833 2.615a11.378 11.378 0 00-2.525 3.828c-.655 1.401-.935 2.895-.935 4.483 0 1.588.28 3.082.841 4.482a12.699 12.699 0 002.432 3.83c1.028 1.12 2.244 2.054 3.74 2.707zm-.187-8.592c-.281-.747-.374-1.494-.374-2.335 0-.747.093-1.494.374-2.24.187-.748.467-1.402.935-1.962a6.107 6.107 0 011.683-1.4c.654-.374 1.496-.561 2.431-.561.841 0 1.683.187 2.337.56.655.374 1.216.84 1.683 1.401.468.56.842 1.214 1.029 1.961.28.747.374 1.494.374 2.335a9.2 9.2 0 01-.281 2.24c-.187.748-.467 1.402-.935 1.962a6.107 6.107 0 01-1.683 1.4c-.654.374-1.496.561-2.431.561s-1.776-.187-2.431-.56a6.136 6.136 0 01-1.683-1.401c-.467-.56-.841-1.214-1.028-1.961zM120.15 7.564c-.561 1.308-.841 2.802-.841 4.203 0 1.494.28 2.988.654 4.482a12.064 12.064 0 002.431 3.922c1.029 1.214 2.244 2.148 3.74 2.802 1.403.654 2.992 1.027 4.769 1.027 1.028 0 2.057-.093 3.085-.373 1.122-.187 2.057-.56 2.992-1.028.935-.467 1.683-1.027 2.431-1.68a7.947 7.947 0 001.59-2.335l-5.236-3.175a3.919 3.919 0 01-.842 1.307c-.28.373-.654.747-1.122.934a5.403 5.403 0 01-1.309.467c-.467.093-.935.186-1.402.186-.842 0-1.59-.186-2.244-.56a6.108 6.108 0 01-1.683-1.4c-.468-.56-.748-1.215-1.029-1.962-.28-.747-.374-1.494-.374-2.334a9.2 9.2 0 01.281-2.242c.187-.747.467-1.4.935-1.96a6.107 6.107 0 011.683-1.401c.654-.374 1.496-.56 2.431-.56.467 0 .935 0 1.402.093.468.093.935.28 1.403.467.467.28.841.56 1.215.933l.071.094c.27.357.599.793.771 1.307l4.955-3.548c-.841-1.588-2.057-2.802-3.74-3.736-1.589-.934-3.646-1.4-5.89-1.4-1.87 0-3.553.373-5.049 1.027-1.403.747-2.712 1.587-3.74 2.708a11.972 11.972 0 00-2.338 3.735zm48.434 16.156V.187h6.452V23.72h-6.452zm16.924 0V12.14l9.35 11.58H200V.187h-6.451V12.14L184.105.187h-5.049V23.72h6.452z" fill="url(#paint0_linear)"/><path fill-rule="evenodd" clip-rule="evenodd" d="M6.732 12.607h12.53c.28-.467.467-.84.654-1.307.374-1.028.56-1.961.56-3.082 0-1.027-.186-1.961-.56-2.988-.374-1.028-.935-1.868-1.59-2.615a8.043 8.043 0 00-2.43-1.868A6.94 6.94 0 0012.715 0H6.732v12.607zm5.423-6.91c.374 0 .748.186 1.216.56.374.373.56 1.027.56 1.96 0 .935-.186 1.588-.467 1.962-.374.373-.748.56-1.122.56H8.976V5.696h3.18zM4.77 23.627v-9.152H0v1.867h2.525v7.285h2.244zM4.769 0v12.607H0v-1.868h2.525V0h2.244zm1.963 14.475v9.152h2.244v-7.285h3.834c1.122 0 2.15-.186 3.085-.653a5.989 5.989 0 001.777-1.214H6.732zM23.002.187V23.72h17.11v-5.603H29.453V.187h-6.452zm33.286 0h-5.89L42.262 23.72H48.9l1.403-4.576h6.264l1.403 4.576h6.545L56.288.187zM53.389 7.47l2.057 7.284H51.24l2.15-7.284zm29.267-1.68h-6.733v17.93h-6.451V5.79h-6.826V.187h20.01V5.79zM84.993.187V23.72h6.452V.187h-6.452zM102.01 12.14v11.58h-6.451V.187h5.049l9.443 11.953V.187h6.452V23.72h-5.143l-9.35-11.58z" fill="url(#paint1_linear)"/><defs><linearGradient id="paint0_linear" x1="162.768" y1="0" x2="162.768" y2="23.907" gradientUnits="userSpaceOnUse"><stop stop-color="#F3E485"/><stop offset="1" stop-color="#B18145"/></linearGradient><linearGradient id="paint1_linear" x1="68.817" y1="0" x2="68.817" y2="23.907" gradientUnits="userSpaceOnUse"><stop stop-color="#F0F0F0"/><stop offset="1" stop-color="#999797"/></linearGradient></defs></svg>