<svg width="40" height="32" fill="none" xmlns="http://www.w3.org/2000/svg"><path d="M37.895 7.609V3.556C37.895 1.6 36 0 33.685 0H4.21C3.094 0 2.023.375 1.233 1.041.443 1.708 0 2.613 0 3.556v24.888c0 .943.444 1.848 1.233 2.515.79.666 1.86 1.041 2.978 1.041h29.473c2.316 0 4.21-1.6 4.21-3.556v-4.053A3.952 3.952 0 0039.43 23.1a3.146 3.146 0 00.57-1.766V10.667a3.146 3.146 0 00-.57-1.766 3.952 3.952 0 00-1.535-1.292zm-2.106 3.058v10.666H21.053V10.667h14.736zM4.211 28.444V3.556h29.473V7.11H21.053c-2.316 0-4.21 1.6-4.21 3.556v10.666c0 1.956 1.894 3.556 4.21 3.556h12.631v3.555H4.211z" fill="#fff"/></svg>