<svg width="90" height="90" fill="none" xmlns="http://www.w3.org/2000/svg"><circle cx="45" cy="45" r="44.5" stroke="#fff" stroke-opacity=".38"/><path fill-rule="evenodd" clip-rule="evenodd" d="M65.726 44.203H40.738V19.346h11.737c2.27 0 4.357.478 6.293 1.404 1.92.941 3.57 2.151 4.946 3.675a17.268 17.268 0 013.237 5.198c.787 1.957 1.18 3.914 1.18 5.886 0 2.062-.378 4.063-1.12 6.02a17.494 17.494 0 01-1.285 2.674zM53.973 31.565c-.787-.687-1.573-1.045-2.36-1.045H45.2v9.994h6.746c.787 0 1.513-.374 2.193-1.091.681-.732 1.014-2.032 1.014-3.914 0-1.927-.393-3.241-1.18-3.944zM36.896 47.983v18.045h-4.462v-14.34h-5.098v-3.705h9.56zm0-3.78V19.346h-4.462v21.168h-5.098v3.69h9.56zm3.842 21.825v-18.03H62.64a14.988 14.988 0 01-3.585 2.36c-1.89.896-3.978 1.344-6.247 1.344h-7.593v14.326h-4.477z" fill="#fff"/></svg>