<svg width="48" height="48" fill="none" xmlns="http://www.w3.org/2000/svg"><path d="M42.406 18.688v-.81c0-.99-.806-1.796-1.797-1.796h-7.187a1.8 1.8 0 00-1.797 1.797v9.793a1.8 1.8 0 001.797 1.797c.992 0 1.797.804 1.797 1.797v11.14h3.593v-11.14c0-.993.805-1.797 1.797-1.797.991 0 1.797-.806 1.797-1.797a1.797 1.797 0 113.594 0 5.4 5.4 0 01-3.594 5.083v9.651h1.797a1.797 1.797 0 110 3.594H4.493A4.497 4.497 0 010 41.508v-9.883a4.497 4.497 0 014.492-4.492H6.29a4.497 4.497 0 014.492 4.492v6.29a1.797 1.797 0 11-3.594 0v-6.29a.9.9 0 00-.898-.898H4.492a.9.9 0 00-.898.898v9.883a.9.9 0 00.898.898h9.524V22.461a4.497 4.497 0 014.492-4.492h1.797a4.497 4.497 0 014.492 4.492v15.453a1.797 1.797 0 11-3.594 0V22.461a.9.9 0 00-.898-.898h-1.797a.9.9 0 00-.899.898v19.945h14.016v-9.651a5.4 5.4 0 01-3.594-5.083v-9.793a5.397 5.397 0 015.39-5.39h7.188A5.396 5.396 0 0146 17.878v.808a1.797 1.797 0 11-3.594 0zM31.625 5.39A5.397 5.397 0 0137.015 0a5.396 5.396 0 015.391 5.39 5.396 5.396 0 01-5.39 5.391 5.396 5.396 0 01-5.391-5.39zm3.594 0c0 .99.806 1.796 1.797 1.796a1.8 1.8 0 001.797-1.796 1.8 1.8 0 00-1.797-1.797c-.991 0-1.797.806-1.797 1.797z" fill="#fff"/></svg>