<svg width="27" height="28" fill="none" xmlns="http://www.w3.org/2000/svg"><path d="M26.204 16.83c.19-.866.29-1.766.29-2.69 0-6.926-5.614-12.54-12.54-12.54-.732 0-1.448.062-2.145.183a7.273 7.273 0 00-10.142 9.835 12.598 12.598 0 00-.254 2.522c0 6.926 5.615 12.54 12.54 12.54.785 0 1.553-.072 2.297-.21a7.273 7.273 0 009.954-9.64zm-5.818 3.303c-.58.821-1.438 1.472-2.548 1.933-1.1.458-2.419.69-3.92.69-1.8 0-3.31-.317-4.49-.943a5.886 5.886 0 01-2.064-1.832c-.533-.768-.803-1.53-.803-2.266 0-.46.176-.858.523-1.184.344-.323.784-.487 1.309-.487.431 0 .803.13 1.105.385.288.244.536.606.735 1.074.222.509.465.939.72 1.277.247.326.6.6 1.052.813.455.215 1.068.324 1.822.324 1.037 0 1.887-.221 2.526-.658.624-.426.928-.938.928-1.564 0-.496-.159-.885-.484-1.19-.342-.32-.792-.568-1.338-.738a25.76 25.76 0 00-2.301-.57c-1.297-.277-2.399-.607-3.277-.98a.021.021 0 01-.01-.004c-.9-.382-1.624-.912-2.154-1.576-.539-.674-.812-1.52-.812-2.513 0-.948.287-1.802.852-2.538.56-.732 1.38-1.3 2.434-1.69 1.04-.385 2.279-.58 3.68-.58 1.12 0 2.104.13 2.926.385.827.257 1.524.605 2.071 1.033.552.43.962.892 1.22 1.37.26.484.392.965.392 1.43 0 .449-.173.856-.515 1.211a1.722 1.722 0 01-1.288.538c-.464 0-.827-.113-1.08-.336-.235-.208-.478-.531-.748-.997-.313-.594-.691-1.062-1.126-1.392-.42-.32-1.125-.484-2.093-.484-.9 0-1.63.18-2.173.537-.523.343-.777.736-.777 1.202 0 .286.081.524.25.73.178.218.43.409.747.568.33.165.67.297 1.01.391.348.097.933.24 1.735.425a30.976 30.976 0 012.772.726c.835.267 1.557.597 2.146.98.6.39 1.076.893 1.413 1.493.339.602.51 1.345.51 2.208a4.758 4.758 0 01-.877 2.8z" fill="#F3E485"/></svg>