<svg width="48" height="48" fill="none" xmlns="http://www.w3.org/2000/svg"><path d="M25.658 27.684c2.346 0 3.796-2.075 3.796-4.313 0-2.151-1.872-4.349-3.974-4.539-1.573-.013-2.722 0-5.44 0v5.852h-.694c-1.876 0-1.706 3 0 3h.693v4.32h3.406v-4.32h2.213zm-.553-5.463c.4 0 1.236.318 1.236 1.15 0 .959-.785 1.265-1.137 1.313h-1.76v-2.463h1.661z" fill="#fff"/><path d="M44.777 41.745l-2.782-5.088V13.67a1.69 1.69 0 00-1.692-1.69h-3.467a1.691 1.691 0 100 3.382h1.776v19.873H8.845V15.362h1.268a1.691 1.691 0 100-3.383h-2.96a1.69 1.69 0 00-1.69 1.691v22.677L2.51 41.745a4.14 4.14 0 00.086 4.133A4.285 4.285 0 006.312 48H41.06a4.198 4.198 0 003.644-2.074 4.187 4.187 0 00.073-4.18zm-2.983 2.456a.84.84 0 01-.734.42H29.474a1.693 1.693 0 00-1.686-1.606h-8.372c-.904 0-1.64.714-1.687 1.606H6.312c-.492 0-.741-.36-.806-.469a.773.773 0 01-.027-.784l2.553-4.67h31.223l2.554 4.67c.2.366.077.679-.015.833zM15.538 9.68a1.692 1.692 0 012.343-2.44l5.397 5.183c.262.249.567.27.725.259a.958.958 0 00.666-.331L33.005.707a1.691 1.691 0 112.75 1.969l-8.37 11.692-.057.075a4.359 4.359 0 01-3.387 1.624 4.362 4.362 0 01-3-1.198L15.537 9.68z" fill="#fff"/></svg>