<svg width="48" height="48" fill="none" xmlns="http://www.w3.org/2000/svg"><path d="M26.134 19.41c2.492 0 4.032-2.204 4.032-4.582 0-2.285-1.989-4.62-4.222-4.822-1.671-.014-2.891 0-5.78 0v6.217h-.736c-1.994 0-1.812 3.187 0 3.187h.736V24h3.618v-4.59h2.352zm-.588-5.804c.424 0 1.313.338 1.313 1.222 0 1.019-.834 1.344-1.208 1.395h-1.869v-2.617h1.764z" fill="#fff"/><path d="M46.806 29.667A25.587 25.587 0 0140.16 43.93l-.008.008-2.335 2.492a1.792 1.792 0 01-1.311.568 1.797 1.797 0 01-1.31-3.026l2.33-2.487a22.009 22.009 0 005.713-12.268 1.797 1.797 0 113.566.449zm-6.987-1.874l.009-16.855c0-.018 0-.036-.002-.054a1.737 1.737 0 01.476-1.257 1.79 1.79 0 011.254-.548c.492-.014.949.155 1.297.478.337.312.532.737.55 1.2l.003 9.735a1.797 1.797 0 003.594 0l-.002-9.766v-.053C46.91 7.726 44.421 5.4 41.45 5.486a5.36 5.36 0 00-4.362 2.437 15.872 15.872 0 00-1.823-2.22C29.142-.504 19.11-.576 12.9 5.547a15.789 15.789 0 00-1.99 2.395 5.52 5.52 0 00-4.608-2.457c-2.895 0-5.206 2.25-5.292 5.19v.052l-.004 15.168c-.147 6.769 2.25 13.174 6.75 18.037l.008.008 2.335 2.492c.354.377.832.568 1.312.568a1.797 1.797 0 001.311-3.026l-2.331-2.488c-3.866-4.179-5.922-9.694-5.79-15.53v-.04l.002-15.158c.04-.987.796-1.707 1.759-1.678.497.015.981.224 1.328.573a1.673 1.673 0 01.499 1.286l.009 16.944c-.01.21-.007.42.008.63l.003.044a5.363 5.363 0 001.414 3.235l.009.01 6.142 6.544a1.798 1.798 0 002.621-2.46l-6.137-6.539a1.787 1.787 0 01-.466-1.062v-.303a1.79 1.79 0 011.858-1.647c.48.018.923.222 1.254.58l9.185 9.838a4.117 4.117 0 011.1 2.975 4.119 4.119 0 01-1.328 2.883l-1.375 1.273a1.797 1.797 0 102.441 2.638l1.377-1.274a7.686 7.686 0 002.477-5.38 7.692 7.692 0 00-2.06-5.562l-.197-.212 6.599-7.184a1.8 1.8 0 012.54-.099c.325.302.513.697.561 1.107v.42a1.785 1.785 0 01-.463 1.013l-.023.025-3.91 4.388a1.797 1.797 0 002.683 2.39l3.9-4.375a5.375 5.375 0 001.407-3.985zm-9.339-3.32l-3.94 4.29c-1.632.343-3.338.35-4.973.02l-4.03-4.316a5.357 5.357 0 00-4.218-1.722c-2.633-4.737-1.794-10.796 2.104-14.64 4.799-4.73 12.552-4.676 17.282.123a12.217 12.217 0 011.982 14.52 5.389 5.389 0 00-4.207 1.724z" fill="#fff"/></svg>