<svg width="48" height="48" fill="none" xmlns="http://www.w3.org/2000/svg"><path d="M24 26.605c.992 0 1.797-.804 1.797-1.796V2.797a1.797 1.797 0 10-3.594 0v22.012c0 .992.805 1.796 1.797 1.796z" fill="#fff"/><path d="M20.09 34.002l.008.009a5.375 5.375 0 003.813 1.577c1.38 0 2.76-.525 3.808-1.575l9.947-9.908a1.797 1.797 0 10-2.536-2.546l-9.95 9.91c-.339.34-.79.527-1.27.527-.478 0-.928-.185-1.267-.522l-9.762-9.903a1.797 1.797 0 00-2.56 2.522l9.768 9.909zm25.113 4.014c-.992 0-1.797.804-1.797 1.797a3.598 3.598 0 01-3.593 3.593H8.186a3.598 3.598 0 01-3.593-3.593 1.797 1.797 0 10-3.594 0A7.197 7.197 0 008.188 47h31.624A7.195 7.195 0 0047 39.812c0-.992-.804-1.796-1.797-1.796z" fill="#fff"/></svg>