<svg width="48" height="48" fill="none" xmlns="http://www.w3.org/2000/svg"><path d="M46.166 30.296a1.793 1.793 0 00-2.503.415l-8.84 12.348c-.242.28-.544.34-.706.352a1.015 1.015 0 01-.768-.275l-5.714-5.575a1.793 1.793 0 10-2.505 2.567l5.723 5.585.016.016a4.625 4.625 0 003.486 1.26 4.623 4.623 0 003.349-1.791l8.876-12.4a1.794 1.794 0 00-.414-2.502z" fill="#fff"/><path d="M23.483 25.383a12.267 12.267 0 00.95 0 19.73 19.73 0 0112.513 4.868 1.793 1.793 0 102.361-2.7 23.297 23.297 0 00-8.05-4.59c2.971-2.227 4.897-5.775 4.897-9.765C36.154 6.471 30.683 1 23.957 1c-6.725 0-12.196 5.471-12.196 12.196 0 3.991 1.927 7.54 4.9 9.767a23.308 23.308 0 00-7.516 4.131 23.399 23.399 0 00-8.029 13.25 5.447 5.447 0 001.109 4.565 5.415 5.415 0 004.218 2.006h15.81a1.794 1.794 0 100-3.587H6.444a1.823 1.823 0 01-1.435-.682 1.873 1.873 0 01-.38-1.571c1.862-8.94 9.748-15.472 18.855-15.692zm-8.135-12.187c0-4.747 3.863-8.609 8.61-8.609s8.609 3.862 8.609 8.61c0 4.6-3.629 8.37-8.174 8.598a23.32 23.32 0 00-.869 0c-4.546-.227-8.176-3.997-8.176-8.599z" fill="#fff"/></svg>