<svg width="24" height="24" fill="none" xmlns="http://www.w3.org/2000/svg"><g clip-path="url(#clip0)" fill="#F3E485"><path d="M21.148 10.893c-.77-.802-1.634-.806-2.03-.852-2.833-.202-7.083-.202-7.083-.202h-.01s-4.25 0-7.086.202c-.395.046-1.257.05-2.028.852-.607.612-.805 1.998-.805 1.998s-.201 1.628-.201 3.257v1.527c0 1.628.2 3.257.2 3.257s.2 1.386.806 1.995c.771.803 1.782.777 2.232.861 1.621.155 6.887.202 6.887.202s4.255-.006 7.088-.21c.397-.046 1.26-.05 2.03-.853.608-.61.806-1.995.806-1.995s.2-1.63.2-3.257v-1.527c0-1.629-.2-3.257-.2-3.257s-.199-1.386-.806-1.998zM6.367 21.283H5v-7.801H3.557v-1.277h4.28v1.277h-1.47v7.8zm4.842 0h-1.23v-.739c-.486.559-.952.833-1.403.833-.395 0-.667-.162-.792-.505-.066-.204-.107-.528-.107-1.006v-5.348h1.228v4.98c0 .287 0 .437.01.477.03.19.125.288.288.288.247 0 .503-.19.776-.575v-5.17h1.23v6.765zm4.665-2.029c0 .624-.041 1.075-.124 1.362-.165.504-.493.761-.98.761-.438 0-.86-.242-1.27-.75v.656h-1.23v-9.078h1.23v2.964c.396-.487.817-.733 1.27-.733.487 0 .815.258.98.763.083.274.124.72.124 1.36v2.695zm4.567-1.13h-2.456v1.199c0 .627.206.94.627.94.302 0 .478-.165.549-.492.01-.067.027-.34.027-.832h1.253v.18c0 .394-.016.666-.027.79-.04.27-.138.516-.287.733-.34.492-.844.735-1.486.735s-1.13-.232-1.485-.695c-.261-.339-.394-.873-.394-1.59v-2.37c0-.723.12-1.25.38-1.594.354-.463.843-.693 1.47-.693.616 0 1.105.23 1.449.693.257.344.38.871.38 1.594v1.401zM8.788 9.163V5.447L10.443-.01H9.052l-.939 3.602L7.136-.01H5.687c.292.85.593 1.704.884 2.556.44 1.28.716 2.243.841 2.9v3.716h1.376zm3.23.093c.62 0 1.103-.234 1.446-.699.26-.34.386-.88.386-1.607V4.555c0-.73-.126-1.263-.386-1.609-.344-.468-.825-.7-1.446-.7-.62 0-1.104.232-1.446.7-.265.346-.387.88-.387 1.609V6.95c0 .728.122 1.266.387 1.607.342.465.825.7 1.446.7zm-.593-4.95c0-.631.192-.948.593-.948.398 0 .59.317.59.949v2.876c0 .632-.192.948-.59.948-.4 0-.593-.316-.593-.948V4.307zm6.945 4.857V2.326h-1.24v5.226c-.275.388-.535.58-.783.58-.167 0-.266-.1-.291-.29-.016-.04-.016-.19-.016-.481V2.326h-1.237v5.407c0 .483.04.81.11 1.017.124.345.4.507.8.507.451 0 .922-.275 1.417-.84v.746h1.24z"/><path d="M14.113 15.54c-.203 0-.408.096-.613.296v4.125c.205.204.41.302.613.302.353 0 .534-.302.534-.913v-2.886c0-.612-.181-.924-.534-.924zm4.487 0c-.41 0-.616.312-.616.938v.627h1.228v-.627c0-.626-.205-.938-.612-.938z"/></g><defs><clipPath id="clip0"><path fill="#fff" d="M0 0h24v24H0z"/></clipPath></defs></svg>